~*~*~*~*~*~Luis Fonsi (Tierra Firme) 2011 720p~*~*~*~*~*~


=========================================
~~~~~~~~~~~~~~~~~~~~~~~~~~~~~~~~~~~~~~~~~
=========================================

General
Complete name                    : Luis Fonsi (Tierra Firme).MP4
Format                           : MPEG-4
Format profile                   : Base Media / Version 2
Codec ID                         : mp42
File size                        : 69.2 MiB
Duration                         : 4mn 38s
Overall bit rate                 : 2 084 Kbps
Encoded date                     : UTC 2011-08-07 18:30:28
Tagged date                      : UTC 2011-08-07 18:30:28
gsst                             : 0
gstd                             : 278653
gssd                             : BADC20E21HH1315235111628441
gshh                             :

Video
ID                               : 1
Format                           : AVC
Format/Info                      : Advanced Video Codec
Format profile                   : High@L3.1
Format settings, CABAC           : Yes
Format settings, ReFrames        : 1 frame
Codec ID                         : avc1
Codec ID/Info                    : Advanced Video Coding
Duration                         : 4mn 38s
Bit rate                         : 1 928 Kbps
Maximum bit rate                 : 3 380 Kbps
Width                            : 1 280 pixels
Height                           : 720 pixels
Display aspect ratio             : 16:9
Frame rate mode                  : Variable
Frame rate                       : 23.976 fps
Minimum frame rate               : 23.810 fps
Maximum frame rate               : 24.390 fps
Color space                      : YUV
Chroma subsampling               : 4:2:0
Bit depth                        : 8 bits
Scan type                        : Progressive
Bits/(Pixel*Frame)               : 0.087
Stream size                      : 64.1 MiB (93%)
Tagged date                      : UTC 2011-08-07 18:30:29

Audio
ID                               : 2
Format                           : AAC
Format/Info                      : Advanced Audio Codec
Format profile                   : LC
Codec ID                         : 40
Duration                         : 4mn 38s
Bit rate mode                    : Variable
Bit rate                         : 150 Kbps
Maximum bit rate                 : 181 Kbps
Channel(s)                       : 2 channels
Channel positions                : Front: L R
Sampling rate                    : 44.1 KHz
Compression mode                 : Lossy
Stream size                      : 4.98 MiB (7%)
Title                            : IsoMedia File Produced by Google, 5-11-2011
Encoded date                     : UTC 2011-08-07 18:30:29
Tagged date                      : UTC 2011-08-07 18:30:29

=========================================
~~~~~~~~~~~~~~~~~~~~~~~~~~~~~~~~~~~~~~~~~
=========================================